<mxfile host="drawio-plugin" agent="Mozilla/5.0 (Windows NT 10.0; Win64; x64) AppleWebKit/537.36 (KHTML, like Gecko) Chrome/122.0.0.0 Safari/537.36" modified="2024-09-04T17:41:41.189Z" version="22.1.22" etag="gvhkQrNXkcPnjqgQmmaR" type="embed">
  <diagram name="Página-1" id="XdDK8I2phkThFm3I9wrV">
    <mxGraphModel dx="1208" dy="536" grid="1" gridSize="10" guides="1" tooltips="1" connect="1" arrows="1" fold="1" page="1" pageScale="1" pageWidth="827" pageHeight="1169" math="0" shadow="0">
      <root>
        <mxCell id="0" />
        <mxCell id="1" parent="0" />
        <mxCell id="xUfFPFZn2IvtK71pjrwn-1" value="Libro" style="swimlane;fontStyle=1;align=center;verticalAlign=top;childLayout=stackLayout;horizontal=1;startSize=26;horizontalStack=0;resizeParent=1;resizeParentMax=0;resizeLast=0;collapsible=1;marginBottom=0;whiteSpace=wrap;html=1;" parent="1" vertex="1">
          <mxGeometry x="150" y="80" width="310" height="490" as="geometry" />
        </mxCell>
        <mxCell id="xUfFPFZn2IvtK71pjrwn-2" value="&amp;lt;&amp;lt; Atributos &amp;gt;&amp;gt;&lt;div&gt;&lt;br&gt;&lt;/div&gt;&lt;div&gt;- _autor : str&lt;/div&gt;&lt;div&gt;- _titulo : str&lt;/div&gt;&lt;div&gt;- _genero : str&lt;/div&gt;&lt;div&gt;- _cantidadPaginas : int&lt;/div&gt;&lt;div&gt;&lt;br&gt;&lt;/div&gt;" style="text;strokeColor=none;fillColor=none;align=left;verticalAlign=top;spacingLeft=4;spacingRight=4;overflow=hidden;rotatable=0;points=[[0,0.5],[1,0.5]];portConstraint=eastwest;whiteSpace=wrap;html=1;" parent="xUfFPFZn2IvtK71pjrwn-1" vertex="1">
          <mxGeometry y="26" width="310" height="114" as="geometry" />
        </mxCell>
        <mxCell id="xUfFPFZn2IvtK71pjrwn-3" value="" style="line;strokeWidth=1;fillColor=none;align=left;verticalAlign=middle;spacingTop=-1;spacingLeft=3;spacingRight=3;rotatable=0;labelPosition=right;points=[];portConstraint=eastwest;strokeColor=inherit;" parent="xUfFPFZn2IvtK71pjrwn-1" vertex="1">
          <mxGeometry y="140" width="310" height="8" as="geometry" />
        </mxCell>
        <mxCell id="xUfFPFZn2IvtK71pjrwn-4" value="&amp;lt;&amp;lt; Constructor &amp;gt;&amp;gt;&lt;div&gt;+ __init__(autor : str, titulo : str, genero : str, cantidadPaginas : int)&lt;/div&gt;&lt;div&gt;&lt;br&gt;&lt;/div&gt;&lt;div&gt;&amp;lt;&amp;lt; Comandos de Consulta &amp;gt;&amp;gt;&lt;/div&gt;&lt;div&gt;+ getAutor() : str&lt;/div&gt;&lt;div&gt;+ getTitulo() : str&lt;/div&gt;&lt;div&gt;+ getGenero() : str&lt;/div&gt;&lt;div&gt;+ getCantidadPaginas : int&lt;/div&gt;&lt;div&gt;&lt;br&gt;&lt;/div&gt;&lt;div&gt;&amp;lt;&amp;lt;Comandos de modificación &amp;gt;&amp;gt;&lt;/div&gt;&lt;div&gt;+ setAutor(nuevoAutor : str)&lt;/div&gt;&lt;div&gt;+ setTitulo(nuevoTitulo : str)&lt;/div&gt;&lt;div&gt;+ setGenero(nuevoGenero : str)&lt;/div&gt;&lt;div&gt;+ setCantidadPaginas(nuevaCantidad : int)&lt;/div&gt;&lt;div&gt;&lt;br&gt;&lt;/div&gt;&lt;div&gt;&amp;lt;&amp;lt; Comandos de Operación/Especiales &amp;gt;&amp;gt;&lt;/div&gt;&lt;div&gt;&lt;br&gt;&lt;/div&gt;&lt;div&gt;+ equals(obj2 : Libro) : bool&lt;/div&gt;&lt;div&gt;+ copy(obj2 : Libro) : Libro&lt;/div&gt;&lt;div&gt;+ clone() : Libro&lt;/div&gt;" style="text;strokeColor=none;fillColor=none;align=left;verticalAlign=top;spacingLeft=4;spacingRight=4;overflow=hidden;rotatable=0;points=[[0,0.5],[1,0.5]];portConstraint=eastwest;whiteSpace=wrap;html=1;" parent="xUfFPFZn2IvtK71pjrwn-1" vertex="1">
          <mxGeometry y="148" width="310" height="342" as="geometry" />
        </mxCell>
      </root>
    </mxGraphModel>
  </diagram>
</mxfile>
